<?xml version="1.0" encoding="UTF-8"?>
<svg version="1.1" xmlns="http://www.w3.org/2000/svg" width="688" height="363">
<path d="M0 0 C1.91332647 0.5600466 3.8268861 1.11945837 5.74487305 1.66333008 C14.62723094 4.18361654 23.36246899 7.0986942 32.10986328 10.04882812 C40.68076836 12.92627165 49.31304339 15.50125963 58 18 C64.0652004 19.79883011 70.08648479 21.62267367 76 23.875 C81.33649215 25.86448172 86.77064369 27.40044139 92.25 28.9375 C112.5086694 34.62042341 112.5086694 34.62042341 120.34375 38.015625 C122.66025484 38.87409444 124.77887902 39.41529314 127.1875 39.91796875 C132.27014478 40.99645557 137.09530935 42.61475784 142 44.3125 C149.4193942 46.84055082 156.85282625 49.21746404 164.40625 51.3137207 C167.52398176 52.19531616 170.43852185 53.19188471 173.41015625 54.4921875 C177.56544203 56.23749796 181.69524548 57.30691663 186.0625 58.375 C193.04728643 60.14438959 199.76335491 62.25194096 206.5234375 64.76171875 C210.23032071 66.08203558 213.97066734 67.2234175 217.75 68.3125 C233.37967078 72.81993315 248.97569817 77.51662882 264.36328125 82.796875 C272.07468269 85.34801533 279.86295767 87.66031571 287.640625 90 C289.84375 90.66666667 292.046875 91.33333333 294.25 92 C295.35601563 92.33 296.46203125 92.66 297.6015625 93 C319.00496524 99.50744786 319.00496524 99.50744786 324 107 C324.27528114 109.65718741 324.41580858 112.15409569 324.4375 114.8125 C324.47037109 115.51181641 324.50324219 116.21113281 324.53710938 116.93164062 C324.58194066 121.28842661 323.96767572 124.36837813 320.81274414 127.66186523 C316.83432137 130.59866459 312.13318078 132.02500161 307.5 133.625 C306.4186377 134.01397461 305.33727539 134.40294922 304.22314453 134.80371094 C297.84137 137.07845987 291.4336729 139.21166043 284.9296875 141.109375 C281.57497189 142.12920855 278.29550926 143.30294412 275 144.5 C269.48635133 146.49831687 263.94138965 148.28173622 258.328125 149.9765625 C252.84686209 151.66211518 247.41803334 153.50450662 241.98339844 155.33349609 C238.63694789 156.45804188 235.28706233 157.5722642 231.9375 158.6875 C226.20520357 160.59613126 220.47485929 162.51048076 214.74609375 164.4296875 C212.12254828 165.30774783 209.49879247 166.18517807 206.875 167.0625 C206.21976349 167.28178162 205.56452698 167.50106323 204.88943481 167.72698975 C196.50135356 170.53223693 188.10394043 173.27642038 179.6171875 175.76953125 C176.26176975 176.91095306 173.04082875 178.20591013 169.77392578 179.5769043 C168.69281525 180.02986374 167.61170471 180.48282318 166.49783325 180.94950867 C165.67354828 181.29617081 164.84926331 181.64283295 164 182 C164.00037703 182.5904586 164.00075405 183.18091721 164.0011425 183.78926849 C164.0082703 198.17935993 163.98226599 212.56911224 163.9197216 226.9590683 C163.89026769 233.91810418 163.87188644 240.87683555 163.87988281 247.8359375 C163.88757021 254.55353812 163.86398973 261.27036814 163.82144547 267.98786926 C163.81031444 270.54903289 163.80961393 273.11026405 163.81957626 275.6714325 C163.83175395 279.2628109 163.80665405 282.85215857 163.77294922 286.44335938 C163.78517014 287.49928284 163.79739105 288.5552063 163.8099823 289.64312744 C163.68944751 296.78342029 162.01311737 300.8888168 157 306 C150.8193772 311.55657651 143.84147552 315.90982711 136.47265625 319.7109375 C134.85794155 320.55273189 133.27004766 321.4487207 131.71875 322.40234375 C114.3282288 332.62177359 94.67681846 340.06877939 75.26367188 345.34643555 C73.60890623 345.82419737 71.96549204 346.34177736 70.33007812 346.88208008 C61.05919894 349.91711854 51.67764703 351.83682972 42.10644531 353.66479492 C39.3711078 354.18824483 36.63865888 354.72516615 33.90625 355.26367188 C32.13296769 355.60757201 30.35953494 355.95069755 28.5859375 356.29296875 C27.7866684 356.45024948 26.98739929 356.60753021 26.16390991 356.76957703 C15.9765877 358.69663563 5.8782967 359.15739928 -4.47265625 359.16796875 C-6.21644814 359.17296135 -6.21644814 359.17296135 -7.99546814 359.17805481 C-10.44350798 359.18308908 -12.8915546 359.18546423 -15.33959961 359.18530273 C-19.02795116 359.18747961 -22.71599843 359.20564703 -26.40429688 359.22460938 C-44.82087954 359.27074287 -61.99700789 357.94853899 -80 354 C-82.43745945 353.47897692 -84.87495867 352.95813989 -87.3125 352.4375 C-88.46395508 352.18709961 -89.61541016 351.93669922 -90.80175781 351.67871094 C-93.52394879 351.10102461 -96.24772077 350.58068441 -98.984375 350.078125 C-105.53857496 348.77798574 -111.87907045 346.74197318 -118.25 344.75 C-119.21261246 344.450867 -119.21261246 344.450867 -120.19467163 344.14569092 C-129.40726379 341.27482021 -138.23772489 338.05734307 -147 334 C-148.41053095 333.46277169 -149.82662309 332.93970511 -151.25 332.4375 C-155.03841074 331.05481 -158.57943035 329.28726194 -162.1640625 327.4453125 C-164.22898028 326.39294394 -166.30942397 325.37087446 -168.3984375 324.3671875 C-178.17211616 319.66312103 -186.77472196 314.07756482 -195 307 C-195.86625 306.38125 -196.7325 305.7625 -197.625 305.125 C-201.31751942 301.82116683 -203.64511216 298.44159933 -204.35968781 293.52537727 C-204.49137427 290.5590969 -204.49475891 287.61765009 -204.45410156 284.64868164 C-204.45468567 283.52599884 -204.45526978 282.40331604 -204.45587158 281.24661255 C-204.45309393 277.55080817 -204.4220153 273.85581905 -204.390625 270.16015625 C-204.38316152 267.59183696 -204.37746909 265.02351196 -204.37347412 262.45518494 C-204.35978327 256.39559267 -204.32828633 250.33633482 -204.28807616 244.27686828 C-204.24327472 237.37482283 -204.22135047 230.47276306 -204.20129442 223.57060826 C-204.15955079 209.38024978 -204.08925126 195.19013524 -204 181 C-205.43546368 180.52053835 -206.87101161 180.04132889 -208.30659485 179.56222534 C-209.10600652 179.29533842 -209.90541819 179.0284515 -210.72905445 178.7534771 C-213.43082303 177.85705721 -216.14092694 176.98973303 -218.85546875 176.1328125 C-219.88333496 175.80667969 -220.91120117 175.48054687 -221.97021484 175.14453125 C-224.1590523 174.45090663 -226.34819169 173.75823428 -228.53759766 173.06640625 C-235.38464583 170.88693181 -242.10111572 168.56302564 -248.7421875 165.8125 C-251.92493157 165.0187221 -254.44126016 164.91793962 -257.70361328 164.94921875 C-258.69515411 164.95655029 -259.68669495 164.96388184 -260.70828247 164.97143555 C-261.84268265 164.98557495 -261.84268265 164.98557495 -263 165 C-263.2092179 172.94532508 -263.36878001 180.88948618 -263.46630955 188.83689117 C-263.51313859 192.52799764 -263.57656281 196.21721021 -263.67895508 199.90722656 C-263.77728785 203.47357035 -263.83066495 207.03810219 -263.85389519 210.60569763 C-263.87843958 212.61798988 -263.94861836 214.62955977 -264.01966858 216.64074707 C-264.12253889 223.56751827 -264.12253889 223.56751827 -261.00900269 229.51074219 C-258.63969807 231.63566689 -258.63969807 231.63566689 -256.13926697 233.32092285 C-252.5588381 236.13114541 -251.6926235 239.63572721 -251 244 C-250.27732762 250.13747849 -251.04797634 255.52289826 -254 261 C-254.78375 261.763125 -255.5675 262.52625 -256.375 263.3125 C-258.27233395 265.79631876 -258.27233395 265.79631876 -257.65185547 268.16772461 C-257.39291504 269.02889893 -257.13397461 269.89007324 -256.8671875 270.77734375 C-256.57859863 271.75920654 -256.29000977 272.74106934 -255.99267578 273.75268555 C-255.50130127 275.3601062 -255.50130127 275.3601062 -255 277 C-253.94532003 280.52527663 -252.89272235 284.05114549 -251.84375 287.578125 C-251.10902887 290.04468881 -250.36407376 292.50822527 -249.609375 294.96875 C-249.25875 296.15984375 -248.908125 297.3509375 -248.546875 298.578125 C-248.22557617 299.64450195 -247.90427734 300.71087891 -247.57324219 301.80957031 C-246.90491681 305.52919386 -247.16439916 308.32357534 -248 312 C-250.57660691 315.11905047 -252.1544104 316.7181368 -256 318 C-258.57672034 318.12061244 -261.12557839 318.18808081 -263.703125 318.203125 C-264.45914001 318.20882507 -265.21515503 318.21452515 -265.99407959 318.22039795 C-267.59450892 318.22983965 -269.19495762 318.23637864 -270.79541016 318.24023438 C-273.22724 318.24990945 -275.65821328 318.28092679 -278.08984375 318.3125 C-279.64843251 318.3190337 -281.20702728 318.32428273 -282.765625 318.328125 C-283.48566711 318.3404718 -284.20570923 318.3528186 -284.9475708 318.36553955 C-290.10231351 318.34313612 -293.50313575 317.33102759 -298 315 C-300.12171751 312.74567514 -300.94017439 311.24333232 -301.08984375 308.1328125 C-300.67341576 302.30282059 -298.83472638 296.88353741 -297.046875 291.3515625 C-295.73104486 287.13894212 -294.69291883 282.88281865 -293.66015625 278.59375 C-293 276 -293 276 -291.8125 272.5625 C-290.92358656 269.75900377 -290.55175225 267.9136104 -291 265 C-291.61875 264.236875 -292.2375 263.47375 -292.875 262.6875 C-297.04551962 257.4130193 -297.75919202 250.59625851 -297 244 C-296.2901432 239.93765119 -295.57134033 236.12368437 -292.08215332 233.62852478 C-291.36990601 233.18255447 -290.65765869 232.73658417 -289.92382812 232.27709961 C-286.93536342 229.73887226 -286.08358022 228.41134839 -285.29272461 224.51907349 C-284.96804012 220.05542955 -285.09977417 215.5984996 -285.21875 211.12890625 C-285.2336866 209.47984063 -285.24506693 207.8307393 -285.25305176 206.18162537 C-285.28347583 201.85865819 -285.36194907 197.53787027 -285.45068359 193.21575928 C-285.53278884 188.79843626 -285.5691155 184.38075812 -285.609375 179.96289062 C-285.69495792 171.30759795 -285.83134064 162.65407068 -286 154 C-288.72813879 153.03075615 -291.45680319 152.06303938 -294.18579102 151.09619141 C-295.33883602 150.68627708 -295.33883602 150.68627708 -296.51517487 150.26808167 C-301.61344626 148.46354269 -306.7209488 146.80559256 -311.9375 145.375 C-317.31324067 143.85132835 -322.51694775 142.16543909 -327.62890625 139.89453125 C-330.32600818 138.87700845 -333.06717207 138.23970645 -335.8659668 137.56469727 C-339.37539065 136.63605096 -342.73728742 135.35818583 -346.125 134.0625 C-346.80175781 133.81048828 -347.47851562 133.55847656 -348.17578125 133.29882812 C-359.95694161 128.84386323 -359.95694161 128.84386323 -363 125 C-364.15243755 121.54268736 -364.16824837 118.76740787 -364.1875 115.125 C-364.20167969 113.91070312 -364.21585937 112.69640625 -364.23046875 111.4453125 C-364.00253971 108.0379665 -363.72452335 105.93373055 -362 103 C-359.63671875 101.33984375 -359.63671875 101.33984375 -356.6875 99.9375 C-355.74261719 99.47214844 -354.79773438 99.00679688 -353.82421875 98.52734375 C-349.51306937 96.68295577 -345.01509862 95.41690729 -340.5300293 94.06860352 C-337.03884899 93.01176029 -333.56735985 91.90644667 -330.09765625 90.78125 C-328.93943359 90.40613281 -327.78121094 90.03101562 -326.58789062 89.64453125 C-324.24116372 88.88265758 -321.89480786 88.11964003 -319.54882812 87.35546875 C-312.43023273 85.05251015 -305.2836017 82.91496089 -298.08276367 80.88427734 C-294.55568684 79.8725507 -291.09525995 78.75359872 -287.625 77.5625 C-277.94429174 74.28248991 -268.18539603 71.26323854 -258.40234375 68.3046875 C-256.41403591 67.7032129 -254.42575502 67.1016492 -252.4375 66.5 C-251.45040039 66.2014209 -250.46330078 65.9028418 -249.44628906 65.59521484 C-243.85151639 63.89444119 -238.28629392 62.13220927 -232.75 60.25 C-228.73018305 58.88502919 -224.73499652 57.62373791 -220.625 56.5625 C-215.8116847 55.30529078 -211.17584926 53.68477475 -206.5 52 C-201.04670282 50.03548396 -195.63432615 48.2868021 -190.015625 46.84765625 C-185.12991999 45.47434279 -180.34096142 43.80797623 -175.54321289 42.15625 C-172.07393545 40.97339378 -168.63907607 39.87670656 -165.0703125 39.03515625 C-159.39860888 37.6751513 -153.9802315 35.5670816 -148.50976562 33.56640625 C-143.7961775 31.87546548 -139.18971647 30.54631685 -134.28881836 29.53222656 C-130.01390158 28.53816591 -125.89551771 27.05406405 -121.75 25.625 C-115.07929237 23.34424368 -108.38861357 21.17329567 -101.64550781 19.11572266 C-95.20107697 17.1433781 -88.77097562 15.12516521 -82.34033203 13.10839844 C-80.76604656 12.61505882 -79.19149728 12.12256031 -77.61669922 11.63085938 C-75.30636831 10.90944606 -72.99685298 10.18547434 -70.6875 9.4609375 C-69.98850586 9.24319672 -69.28951172 9.02545593 -68.56933594 8.80111694 C-64.97887025 7.67135266 -61.48527267 6.41819381 -58 5 C-56.19448945 4.53449579 -54.3811577 4.09865285 -52.5625 3.6875 C-46.57717827 2.2430226 -40.88923351 0.2485177 -35.12890625 -1.9140625 C-23.0364299 -6.11095192 -11.774709 -4.0810071 0 0 Z " fill="#072435" transform="translate(364,4)"/>
<path d="M0 0 C3.45994731 3.01636432 6.17153539 5.57354294 6.66796875 10.3359375 C6.47210916 14.70288106 5.87642477 16.6432533 2.875 19.9375 C1.23828125 21.06640625 1.23828125 21.06640625 -0.5625 22.125 C-1.50029297 22.69541016 -1.50029297 22.69541016 -2.45703125 23.27734375 C-9.73813185 27.31282554 -17.47690622 27.30558898 -25.625 27.3125 C-26.38876953 27.32474609 -27.15253906 27.33699219 -27.93945312 27.34960938 C-32.84086502 27.36218785 -36.85162678 26.61760883 -41.5625 25.125 C-46.48927665 23.94231224 -50.54482376 24.43146071 -55.4375 25.4375 C-60.94883678 26.49091997 -66.42269086 27.41191251 -72 28.0625 C-79.35682885 28.93796263 -86.67626877 30.0065876 -94 31.125 C-95.10206787 31.2912085 -96.20413574 31.45741699 -97.33959961 31.62866211 C-102.06868788 32.35784197 -106.74730722 33.12634739 -111.40625 34.22265625 C-115.16079771 35.09422491 -118.76490847 35.41888893 -122.625 35.5625 C-128.63437029 35.90299116 -134.33806814 36.71713627 -140.25073242 37.90039062 C-145.46162786 38.93797752 -150.68059254 39.79236646 -155.9375 40.5625 C-156.76644775 40.68423584 -157.59539551 40.80597168 -158.44946289 40.93139648 C-160.21302227 41.19015353 -161.9766139 41.44869091 -163.74023438 41.70703125 C-168.89269977 42.47009533 -174.03983963 43.26777618 -179.1875 44.0625 C-180.27804688 44.23056152 -181.36859375 44.39862305 -182.4921875 44.57177734 C-185.84901414 45.08915709 -189.20576752 45.60700972 -192.5625 46.125 C-199.17925749 47.14605725 -205.79614151 48.16619557 -212.4140625 49.1796875 C-216.32714874 49.77916499 -220.23843965 50.38853147 -224.1484375 51.0078125 C-233.62287745 52.49286198 -242.97263288 53.66455936 -252.5625 54.125 C-252.5625 54.785 -252.5625 55.445 -252.5625 56.125 C-255.91189881 58.15058881 -258.43212551 58.34238987 -262.3125 58.25 C-263.29734375 58.23195313 -264.2821875 58.21390625 -265.296875 58.1953125 C-266.04453125 58.17210937 -266.7921875 58.14890625 -267.5625 58.125 C-267.7717179 66.07032508 -267.93128001 74.01448618 -268.02880955 81.96189117 C-268.07563859 85.65299764 -268.13906281 89.34221021 -268.24145508 93.03222656 C-268.33978785 96.59857035 -268.39316495 100.16310219 -268.41639519 103.73069763 C-268.44093958 105.74298988 -268.51111836 107.75455977 -268.58216858 109.76574707 C-268.68503889 116.69251827 -268.68503889 116.69251827 -265.57150269 122.63574219 C-263.20219807 124.76066689 -263.20219807 124.76066689 -260.70176697 126.44592285 C-257.1213381 129.25614541 -256.2551235 132.76072721 -255.5625 137.125 C-254.83982762 143.26247849 -255.61047634 148.64789826 -258.5625 154.125 C-259.34625 154.888125 -260.13 155.65125 -260.9375 156.4375 C-262.83483395 158.92131876 -262.83483395 158.92131876 -262.21435547 161.29272461 C-261.82594482 162.58448608 -261.82594482 162.58448608 -261.4296875 163.90234375 C-261.14109863 164.88420654 -260.85250977 165.86606934 -260.55517578 166.87768555 C-260.22759277 167.94929932 -259.90000977 169.02091309 -259.5625 170.125 C-258.50782003 173.65027663 -257.45522235 177.17614549 -256.40625 180.703125 C-255.67152887 183.16968881 -254.92657376 185.63322527 -254.171875 188.09375 C-253.82125 189.28484375 -253.470625 190.4759375 -253.109375 191.703125 C-252.78807617 192.76950195 -252.46677734 193.83587891 -252.13574219 194.93457031 C-251.46741681 198.65419386 -251.72689916 201.44857534 -252.5625 205.125 C-255.13910691 208.24405047 -256.7169104 209.8431368 -260.5625 211.125 C-263.13922034 211.24561244 -265.68807839 211.31308081 -268.265625 211.328125 C-269.02164001 211.33382507 -269.77765503 211.33952515 -270.55657959 211.34539795 C-272.15700892 211.35483965 -273.75745762 211.36137864 -275.35791016 211.36523438 C-277.78974 211.37490945 -280.22071328 211.40592679 -282.65234375 211.4375 C-284.21093251 211.4440337 -285.76952728 211.44928273 -287.328125 211.453125 C-288.04816711 211.4654718 -288.76820923 211.4778186 -289.5100708 211.49053955 C-294.66481351 211.46813612 -298.06563575 210.45602759 -302.5625 208.125 C-304.68421751 205.87067514 -305.50267439 204.36833232 -305.65234375 201.2578125 C-305.23591576 195.42782059 -303.39722638 190.00853741 -301.609375 184.4765625 C-300.29354486 180.26394212 -299.25541883 176.00781865 -298.22265625 171.71875 C-297.5625 169.125 -297.5625 169.125 -296.375 165.6875 C-295.48608656 162.88400377 -295.11425225 161.0386104 -295.5625 158.125 C-296.490625 156.9803125 -296.490625 156.9803125 -297.4375 155.8125 C-301.60801962 150.5380193 -302.32169202 143.72125851 -301.5625 137.125 C-300.85333682 133.06662062 -300.13849598 129.24569404 -296.64465332 126.76121521 C-295.93240601 126.31721878 -295.22015869 125.87322235 -294.48632812 125.41577148 C-291.47899292 122.86117671 -290.64289006 121.52505985 -289.85522461 117.60525513 C-289.53028207 113.08167762 -289.66232511 108.56461652 -289.78125 104.03515625 C-289.79618624 102.36367 -289.80756673 100.69214853 -289.81555176 99.02061462 C-289.84597855 94.63847762 -289.92445463 90.25848979 -290.01318359 85.87719727 C-290.09528265 81.39954703 -290.13161421 76.92154664 -290.171875 72.44335938 C-290.2574628 63.66959076 -290.39384926 54.89756333 -290.5625 46.125 C-289.0775 45.63 -289.0775 45.63 -287.5625 45.125 C-286.7271875 44.1659375 -286.7271875 44.1659375 -285.875 43.1875 C-280.8034258 38.66420409 -271.88052008 38.39523363 -265.3125 37.3125 C-263.78991577 37.05919922 -263.78991577 37.05919922 -262.23657227 36.80078125 C-251.89914481 35.11764285 -241.52560898 33.71314404 -231.14788818 32.30609131 C-220.77314599 30.89708898 -210.46228991 29.3087104 -200.16015625 27.43139648 C-194.08252221 26.34029631 -188.03713582 25.57820566 -181.89355469 24.98364258 C-174.43505769 24.21102637 -167.07313994 22.90227254 -159.6875 21.625 C-150.27024316 19.99883476 -140.91750665 18.51983496 -131.37939453 17.84570312 C-125.55183346 17.3913645 -119.98538567 16.18847286 -114.28320312 14.92285156 C-108.15903256 13.60961079 -101.99092753 12.58429066 -95.8125 11.5625 C-95.16318512 11.45383606 -94.51387024 11.34517212 -93.84487915 11.23321533 C-85.99590521 9.92250541 -78.17057936 8.76661858 -70.25 8 C-60.8610429 7.06706824 -54.57311558 5.49828689 -47.5625 -0.875 C-35.01831357 -10.02886577 -12.73051761 -7.53697311 0 0 Z " fill="#F9C91D" transform="translate(368.5625,110.875)"/>
<path d="M0 0 C3.48677555 2.69432656 4.11783965 5.7927737 5 10 C5.64034869 16.14955555 4.95774186 21.51228886 2 27 C1.21625 27.763125 0.4325 28.52625 -0.375 29.3125 C-2.27233395 31.79631876 -2.27233395 31.79631876 -1.65185547 34.16772461 C-1.26344482 35.45948608 -1.26344482 35.45948608 -0.8671875 36.77734375 C-0.57859863 37.75920654 -0.29000977 38.74106934 0.00732422 39.75268555 C0.33490723 40.82429932 0.66249023 41.89591309 1 43 C2.05467997 46.52527663 3.10727765 50.05114549 4.15625 53.578125 C4.89097113 56.04468881 5.63592624 58.50822527 6.390625 60.96875 C6.74125 62.15984375 7.091875 63.3509375 7.453125 64.578125 C7.77442383 65.64450195 8.09572266 66.71087891 8.42675781 67.80957031 C9.09508319 71.52919386 8.83560084 74.32357534 8 78 C5.42339309 81.11905047 3.8455896 82.7181368 0 84 C-2.57672034 84.12061244 -5.12557839 84.18808081 -7.703125 84.203125 C-8.45914001 84.20882507 -9.21515503 84.21452515 -9.99407959 84.22039795 C-11.59450892 84.22983965 -13.19495762 84.23637864 -14.79541016 84.24023438 C-17.22724 84.24990945 -19.65821328 84.28092679 -22.08984375 84.3125 C-23.64843251 84.3190337 -25.20702728 84.32428273 -26.765625 84.328125 C-27.48566711 84.3404718 -28.20570923 84.3528186 -28.9475708 84.36553955 C-34.10231351 84.34313612 -37.50313575 83.33102759 -42 81 C-44.12171751 78.74567514 -44.94017439 77.24333232 -45.08984375 74.1328125 C-44.67294017 68.29616243 -42.82922127 62.87134862 -41.04296875 57.33203125 C-39.76203116 53.2397475 -38.73741445 49.11091118 -37.7265625 44.9453125 C-36.57387337 40.27258344 -35.28709726 35.63720148 -34 31 C-33.01 31 -32.02 31 -31 31 C-31 31.66 -31 32.32 -31 33 C-22.78888769 35.47882636 -15.03790329 36.35912376 -7 33 C-6.01 33 -5.02 33 -4 33 C-3.896875 32.236875 -3.79375 31.47375 -3.6875 30.6875 C-3 28 -3 28 -1.5 26.5625 C2.42917826 22.46960598 1.11973793 14.82653053 1.1328125 9.51171875 C1.28397655 7.06104898 1.28397655 7.06104898 0 6 C-0.04080783 4.00041636 -0.04254356 1.99954746 0 0 Z " fill="#FCCB1E" transform="translate(108,238)"/>
<path d="M0 0 C3.45994731 3.01636432 6.17153539 5.57354294 6.66796875 10.3359375 C6.47210916 14.70288106 5.87642477 16.6432533 2.875 19.9375 C1.23828125 21.06640625 1.23828125 21.06640625 -0.5625 22.125 C-1.18769531 22.50527344 -1.81289063 22.88554687 -2.45703125 23.27734375 C-9.73813185 27.31282554 -17.47690622 27.30558898 -25.625 27.3125 C-26.38876953 27.32474609 -27.15253906 27.33699219 -27.93945312 27.34960938 C-32.82651631 27.36215103 -36.87476823 26.66416786 -41.5625 25.125 C-45.95379502 24.21014687 -50.07990402 24.03534808 -54.5625 24.125 C-54.5625 23.795 -54.5625 23.465 -54.5625 23.125 C-52.5825 23.125 -50.6025 23.125 -48.5625 23.125 C-49.34625 22.403125 -50.13 21.68125 -50.9375 20.9375 C-54.18599307 17.45697171 -55.47641535 15.06190466 -55.6875 10.3125 C-55.64625 9.590625 -55.605 8.86875 -55.5625 8.125 C-56.2225 8.29 -56.8825 8.455 -57.5625 8.625 C-61.29349794 9.24683299 -64.78123378 9.18908926 -68.5625 9.125 C-68.5625 8.795 -68.5625 8.465 -68.5625 8.125 C-67.16837891 7.90457031 -67.16837891 7.90457031 -65.74609375 7.6796875 C-57.92064113 6.25984521 -53.05501921 4.85358737 -47.5625 -0.875 C-35.08041024 -10.0723293 -12.68312712 -7.50891605 0 0 Z " fill="#EBB61E" transform="translate(368.5625,110.875)"/>
<path d="M0 0 C1.11328125 1.60546875 1.11328125 1.60546875 1.11328125 3.60546875 C1.69078125 3.74984375 2.26828125 3.89421875 2.86328125 4.04296875 C4.94661458 4.56380208 7.02994792 5.08463542 9.11328125 5.60546875 C12.16461615 13.99663972 12.31824909 23.2369416 9.11328125 31.60546875 C8.45328125 32.59546875 7.79328125 33.58546875 7.11328125 34.60546875 C6.90703125 35.26546875 6.70078125 35.92546875 6.48828125 36.60546875 C4.20557424 39.92576985 0.87903015 40.76321049 -2.88671875 41.60546875 C-9.95252217 42.36435039 -15.43644489 41.52634748 -21.88671875 38.60546875 C-21.88671875 37.94546875 -21.88671875 37.28546875 -21.88671875 36.60546875 C-22.64984375 36.52296875 -23.41296875 36.44046875 -24.19921875 36.35546875 C-26.88671875 35.60546875 -26.88671875 35.60546875 -28.57421875 34.04296875 C-32.46271863 26.82146898 -32.97074326 18.78394586 -30.76171875 10.98046875 C-29.08969077 6.47765852 -26.89401068 3.30444391 -22.88671875 0.60546875 C-16.80106024 -1.7433819 -5.53091742 -4.08806939 0 0 Z " fill="#EAB61F" transform="translate(98.88671875,232.39453125)"/>
<path d="M0 0 C3.48677555 2.69432656 4.11783965 5.7927737 5 10 C5.64034869 16.14955555 4.95774186 21.51228886 2 27 C1.21625 27.763125 0.4325 28.52625 -0.375 29.3125 C-2.27233395 31.79631876 -2.27233395 31.79631876 -1.65185547 34.16772461 C-1.39291504 35.02889893 -1.13397461 35.89007324 -0.8671875 36.77734375 C-0.57859863 37.75920654 -0.29000977 38.74106934 0.00732422 39.75268555 C0.33490723 40.82429932 0.66249023 41.89591309 1 43 C2.05467997 46.52527663 3.10727765 50.05114549 4.15625 53.578125 C4.89097113 56.04468881 5.63592624 58.50822527 6.390625 60.96875 C6.74125 62.15984375 7.091875 63.3509375 7.453125 64.578125 C7.93507324 66.17769043 7.93507324 66.17769043 8.42675781 67.80957031 C9.09321374 71.51878923 8.81862944 74.33214346 8 78 C5.9375 80.4375 5.9375 80.4375 4 82 C3.67 80.68 3.34 79.36 3 78 C3.66 78 4.32 78 5 78 C5.47317991 69.79821495 3.85422984 61.80838689 0.4375 54.3125 C-1.07696247 50.8226517 -1.85182413 47.53880494 -2.5703125 43.8203125 C-2.83372811 41.99102376 -2.83372811 41.99102376 -4 41 C-4.17830165 39.06791163 -4.26793417 37.12728628 -4.3125 35.1875 C-4.36857422 33.60001953 -4.36857422 33.60001953 -4.42578125 31.98046875 C-3.90444393 28.33110749 -2.71795423 27.37231843 0 25 C1.69342639 19.35524537 1.30950618 12.8533081 1 7 C0.67 6.67 0.34 6.34 0 6 C-0.04080783 4.00041636 -0.04254356 1.99954746 0 0 Z " fill="#ECD96D" transform="translate(108,238)"/>
<path d="M0 0 C0 0.33 0 0.66 0 1 C-0.90363281 1.10957031 -1.80726562 1.21914062 -2.73828125 1.33203125 C-3.91777344 1.49058594 -5.09726563 1.64914063 -6.3125 1.8125 C-8.07013672 2.03873047 -8.07013672 2.03873047 -9.86328125 2.26953125 C-13.2153878 3.0501588 -13.76033298 3.61622572 -16 6 C-17.98 6.66 -19.96 7.32 -22 8 C-22 32.75 -22 57.5 -22 83 C-22.99 82.67 -23.98 82.34 -25 82 C-25 57.25 -25 32.5 -25 7 C-24.01 6.67 -23.02 6.34 -22 6 C-21.443125 5.360625 -20.88625 4.72125 -20.3125 4.0625 C-14.75275401 -0.89619237 -7.02654711 -0.25917592 0 0 Z " fill="#EDE087" transform="translate(103,150)"/>
<path d="M0 0 C1.21236328 0.02707031 1.21236328 0.02707031 2.44921875 0.0546875 C3.37154297 0.08949219 3.37154297 0.08949219 4.3125 0.125 C4.3125 0.455 4.3125 0.785 4.3125 1.125 C1.6725 1.455 -0.9675 1.785 -3.6875 2.125 C-3.84998415 10.10498788 -3.97421318 18.08428026 -4.0501852 26.06551552 C-4.08665646 29.77197485 -4.13608712 33.47729931 -4.21557617 37.18310547 C-4.29186608 40.76233365 -4.33353622 44.34047342 -4.3516407 47.92045212 C-4.36453473 49.28329984 -4.38971637 50.64609062 -4.4276104 52.00847244 C-4.86236652 59.58191617 -4.86236652 59.58191617 -2.08255005 66.33319092 C-0.34957704 67.83213328 1.30063179 69.03699393 3.3125 70.125 C-0.421875 71.2109375 -0.421875 71.2109375 -2.8125 70.4375 C-5.10925977 68.82976816 -5.65827914 67.72545188 -6.6875 65.125 C-6.9659729 62.43103027 -6.9659729 62.43103027 -7.00634766 59.31835938 C-7.02621735 58.1503479 -7.04608704 56.98233643 -7.06655884 55.77893066 C-7.07811005 54.52157104 -7.08966125 53.26421143 -7.1015625 51.96875 C-7.13061172 50.02711975 -7.13061172 50.02711975 -7.1602478 48.04626465 C-7.21153131 44.60869444 -7.25115991 41.17108466 -7.28839111 37.7333374 C-7.32833644 34.24009324 -7.37955174 30.74701631 -7.4296875 27.25390625 C-7.6875 8.90435419 -7.6875 8.90435419 -7.6875 2.125 C-4.48369983 -0.01086678 -3.66810033 -0.10632175 0 0 Z " fill="#E8D35B" transform="translate(104.6875,166.875)"/>
<path d="M0 0 C0.99 0.33 1.98 0.66 3 1 C2.67 1.99 2.34 2.98 2 4 C1.91157844 5.54290485 1.87965318 7.089377 1.88215637 8.6348114 C1.88047958 10.06247581 1.88047958 10.06247581 1.87876892 11.51898193 C1.88243973 12.56161194 1.88611053 13.60424194 1.88989258 14.6784668 C1.88934982 16.95757549 1.88876281 19.23668417 1.88813782 21.51579285 C1.88956598 22.72663229 1.89099415 23.93747173 1.89246559 25.18500328 C1.89597979 31.58887324 1.87018868 37.99265474 1.84960938 44.39648438 C1.82467258 52.54946319 1.80894374 60.70221426 1.82495117 68.85522461 C1.8377738 75.44003359 1.81921042 82.02430034 1.78250694 88.60904884 C1.77389187 91.11719208 1.77597118 93.62539599 1.789011 96.13352013 C1.80591395 99.64790417 1.78569329 103.16029296 1.75708008 106.67456055 C1.77087204 107.7070694 1.784664 108.73957825 1.7988739 109.80337524 C1.69947569 116.11253059 0.51015525 119.75148751 -3.5188036 124.64815998 C-5 126 -5 126 -7 126 C-6.67 124.35 -6.34 122.7 -6 121 C-5.34 121 -4.68 121 -4 121 C-4.66 119.35 -5.32 117.7 -6 116 C-5.01 115.505 -5.01 115.505 -4 115 C-2.68 115.66 -1.36 116.32 0 117 C0 78.39 0 39.78 0 0 Z " fill="#474D58" transform="translate(526,184)"/>
<path d="M0 0 C0.99 0 1.98 0 3 0 C2.566875 1.918125 2.566875 1.918125 2.125 3.875 C1.00617536 8.90171927 -0.0083596 13.94685368 -1 19 C-1.66 19 -2.32 19 -3 19 C-2.938125 20.216875 -2.87625 21.43375 -2.8125 22.6875 C-2.79854095 26.65187081 -3.76467035 28.69171213 -6 32 C-7.39888735 36.57817678 -7.07078703 41.25726886 -7 46 C-2.545 47.98 -2.545 47.98 2 50 C-1 52 -1 52 -3.4375 51.8125 C-6.38237476 50.87875922 -7.91585164 50.30744997 -10 48 C-11.27997812 41.84677187 -10.73693899 37.64000077 -8.75 31.75 C-8.27672835 30.25320911 -7.80538103 28.75580843 -7.3359375 27.2578125 C-7.10487305 26.53239258 -6.87380859 25.80697266 -6.63574219 25.05957031 C-5.49025818 21.34862443 -4.60584818 17.57741364 -3.69140625 13.8046875 C-2.55105237 9.1788452 -1.27413223 4.59049058 0 0 Z " fill="#EFDA71" transform="translate(74,269)"/>
<path d="M0 0 C-3.7917688 2.33042919 -7.86825616 2.75846703 -12.19140625 3.3671875 C-13.00103317 3.48677826 -13.8106601 3.60636902 -14.64482117 3.72958374 C-17.28315536 4.11778996 -19.92277199 4.49639881 -22.5625 4.875 C-24.38063152 5.14093468 -26.19866509 5.40753986 -28.01660156 5.67480469 C-31.64808761 6.20769305 -35.2800661 6.73698137 -38.91259766 7.26269531 C-44.56824129 8.08131183 -50.22179303 8.9135453 -55.87475586 9.75048828 C-58.04066077 10.07102654 -60.2068188 10.38986173 -62.37329102 10.70654297 C-74.3410447 12.17410298 -74.3410447 12.17410298 -86 15 C-86 14.34 -86 13.68 -86 13 C-75.60032778 10.10388875 -65.02043065 8.29097332 -54.39672852 6.43310547 C-52.73787417 6.13333898 -51.08358513 5.8075799 -49.43383789 5.46118164 C-45.93655203 4.79849 -42.42289983 4.71703075 -38.875 4.5625 C-27.67637945 4.72278924 -27.67637945 4.72278924 -18 1 C-15.92180264 0.76224013 -13.83655612 0.58486887 -11.75 0.4375 C-10.61046875 0.35371094 -9.4709375 0.26992187 -8.296875 0.18359375 C-5.52033379 0.02897593 -2.77949497 -0.0365723 0 0 Z " fill="#283215" transform="translate(170,138)"/>
<path d="M0 0 C-5.66209009 1.27853647 -11.32504273 2.46964532 -17.03125 3.53515625 C-18.99099571 3.81576359 -18.99099571 3.81576359 -20 5 C-21.5705084 5.28527542 -23.15127747 5.51459097 -24.734375 5.71875 C-26.18457031 5.91017578 -26.18457031 5.91017578 -27.6640625 6.10546875 C-28.68242187 6.23566406 -29.70078125 6.36585938 -30.75 6.5 C-32.74497764 6.7589881 -34.73977627 7.01935972 -36.734375 7.28125 C-38.06807129 7.45237305 -38.06807129 7.45237305 -39.42871094 7.62695312 C-41.18702915 7.88205284 -42.93833886 8.18942871 -44.67993164 8.54101562 C-47.09140068 9.018082 -49.23477292 9.06662756 -51.6875 9 C-54.97311531 8.87627398 -54.97311531 8.87627398 -58 10 C-60.2072923 10.07092842 -62.41667452 10.08415025 -64.625 10.0625 C-65.81351562 10.05347656 -67.00203125 10.04445312 -68.2265625 10.03515625 C-69.14179687 10.02355469 -70.05703125 10.01195312 -71 10 C-71 9.67 -71 9.34 -71 9 C-70.3915625 8.91024902 -69.783125 8.82049805 -69.15625 8.72802734 C-67.2467836 8.44617045 -65.3373655 8.16398623 -63.42797852 7.8815918 C-61.10568399 7.53839963 -58.78325107 7.19614286 -56.46069336 6.85473633 C-49.69323505 5.85647224 -42.92951944 4.83850808 -36.17007446 3.78723145 C-32.53741719 3.22282946 -28.90386588 2.66429996 -25.27026367 2.10601807 C-23.46644117 1.82721519 -21.6630507 1.54560251 -19.86010742 1.26116943 C-17.30492035 0.85838451 -14.74840018 0.4653445 -12.19140625 0.07421875 C-11.42268692 -0.04950607 -10.65396759 -0.1732309 -9.86195374 -0.30070496 C-6.24954738 -0.84398312 -3.49542546 -1.03418184 0 0 Z " fill="#BEA538" transform="translate(170,140)"/>
<path d="M0 0 C-0.61875 0.268125 -1.2375 0.53625 -1.875 0.8125 C-4.2995233 1.95556848 -4.2995233 1.95556848 -6 5 C-5.01 4.67 -4.02 4.34 -3 4 C-3 4.99 -3 5.98 -3 7 C-2.34 7.33 -1.68 7.66 -1 8 C-0.01 8.66 0.98 9.32 2 10 C2 10.66 2 11.32 2 12 C3.32 12.33 4.64 12.66 6 13 C2.70630663 14.64684668 -0.4261964 12.78649958 -3.75 11.6875 C-4.45382813 11.46126953 -5.15765625 11.23503906 -5.8828125 11.00195312 C-9.93123981 9.69637294 -13.96647307 8.350851 -18 7 C-17.34 6.01 -16.68 5.02 -16 4 C-15.34 4 -14.68 4 -14 4 C-14 3.34 -14 2.68 -14 2 C-9.15758367 0.66416101 -5.06562383 -0.25328119 0 0 Z " fill="#072538" transform="translate(138,165)"/>
<path d="M0 0 C0.7415332 -0.00926514 1.48306641 -0.01853027 2.24707031 -0.02807617 C6.1495546 -0.00544922 8.7983362 0.3594652 12.1875 2.25 C11.57342285 2.26981934 10.9593457 2.28963867 10.32666016 2.31005859 C7.48824617 2.40653802 4.65044843 2.51570802 1.8125 2.625 C0.84699219 2.6559375 -0.11851562 2.686875 -1.11328125 2.71875 C-7.52094389 2.97677668 -13.56744579 3.79116357 -19.8125 5.25 C-19.8125 6.24 -19.8125 7.23 -19.8125 8.25 C-26.82480651 14.86160328 -34.60872809 15.40868572 -43.8125 15.25 C-43.8125 14.92 -43.8125 14.59 -43.8125 14.25 C-42.41837891 14.02957031 -42.41837891 14.02957031 -40.99609375 13.8046875 C-33.17064113 12.38484521 -28.30501921 10.97858737 -22.8125 5.25 C-15.98326931 0.21793528 -8.14535244 0.06468673 0 0 Z " fill="#C1A743" transform="translate(343.8125,104.75)"/>
<path d="M0 0 C0 0.33 0 0.66 0 1 C-0.90621094 1.12117187 -1.81242187 1.24234375 -2.74609375 1.3671875 C-10.64736688 2.41714809 -10.64736688 2.41714809 -18.4375 4.0625 C-22.31391953 4.99226852 -26.08374585 5.2298406 -30.0625 5.4375 C-36.21835418 5.77607198 -42.02118261 6.67319791 -48.05297852 7.90722656 C-54.67448862 9.22190501 -61.25455911 9.69434721 -68 10 C-64.41899144 6.56858971 -60.66613715 6.33167992 -55.9375 5.9375 C-55.15109131 5.86007568 -54.36468262 5.78265137 -53.55444336 5.70288086 C-51.03729813 5.45617025 -48.51904975 5.22637732 -46 5 C-42.68635674 4.69852645 -39.37389107 4.38781455 -36.0625 4.0625 C-35.2576416 3.98394775 -34.4527832 3.90539551 -33.62353516 3.82446289 C-29.34849456 3.3707544 -25.42523214 2.68639513 -21.3125 1.375 C-14.37963837 -0.80797384 -7.183248 -0.24334717 0 0 Z " fill="#DEC03C" transform="translate(276,141)"/>
<path d="M0 0 C0.74056641 0.00451172 1.48113281 0.00902344 2.24414062 0.01367188 C4.05862899 0.02537825 5.87307534 0.04331102 7.6875 0.0625 C7.6875 0.3925 7.6875 0.7225 7.6875 1.0625 C5.2734375 1.46484375 5.2734375 1.46484375 2.859375 1.8671875 C1.31636719 2.12435547 1.31636719 2.12435547 -0.2578125 2.38671875 C-1.89363281 2.65935547 -1.89363281 2.65935547 -3.5625 2.9375 C-4.60664063 3.11152344 -5.65078125 3.28554687 -6.7265625 3.46484375 C-8.84755077 3.8183418 -10.96864586 4.17119951 -13.08984375 4.5234375 C-15.27038151 4.888182 -17.45005551 5.25812203 -19.62890625 5.6328125 C-20.68464844 5.81328125 -21.74039063 5.99375 -22.828125 6.1796875 C-23.77461914 6.3432373 -24.72111328 6.50678711 -25.69628906 6.67529297 C-30.80177074 7.4309195 -35.81046365 8.06385757 -40.3125 5.0625 C-38.79791567 3.54791567 -37.41670234 3.88413119 -35.3046875 3.81640625 C-34.48226562 3.78353516 -33.65984375 3.75066406 -32.8125 3.71679688 C-31.08604256 3.65642225 -29.35947722 3.59904516 -27.6328125 3.54492188 C-22.54942863 3.33574536 -18.1927136 2.63156623 -13.3125 1.0625 C-8.88176786 -0.07560406 -4.54584542 -0.05281143 0 0 Z " fill="#424B24" transform="translate(264.3125,122.9375)"/>
<path d="M0 0 C-2.18630801 2.18630801 -7.29655974 1.82633622 -10.36523438 2.16210938 C-14.00194623 2.59936799 -16.7967008 3.2494442 -20 5 C-23.25 5.125 -23.25 5.125 -26 5 C-26.33 6.32 -26.66 7.64 -27 9 C-29.75 9.25 -29.75 9.25 -33 9 C-35.375 7 -35.375 7 -37 5 C-36.01 5 -35.02 5 -34 5 C-34 4.34 -34 3.68 -34 3 C-6.21670139 -1.90838275 -6.21670139 -1.90838275 0 0 Z " fill="#2C391D" transform="translate(150,162)"/>
<path d="M0 0 C-3.68087353 2.45391569 -6.44355588 2.22802759 -10.6875 2.125 C-11.38939453 2.11597656 -12.09128906 2.10695312 -12.81445312 2.09765625 C-14.54311525 2.07413704 -16.27160145 2.03826713 -18 2 C-18 2.66 -18 3.32 -18 4 C-24.73130288 5.56506591 -31.31655128 6.35102624 -38.21484375 6.75390625 C-41.08291325 6.89902604 -41.08291325 6.89902604 -44 8 C-45.89470816 8.0685495 -47.7916834 8.08480372 -49.6875 8.0625 C-50.68136719 8.05347656 -51.67523438 8.04445312 -52.69921875 8.03515625 C-53.83810547 8.01775391 -53.83810547 8.01775391 -55 8 C-55 7.67 -55 7.34 -55 7 C-43.44586659 4.58368972 -31.91749812 2.60448974 -20.1875 1.25 C-19.09775879 1.12262451 -18.00801758 0.99524902 -16.88525391 0.86401367 C-11.21853177 0.23822722 -5.7004719 -0.13752646 0 0 Z " fill="#D4B939" transform="translate(244,129)"/>
<path d="M0 0 C0.90427734 -0.01224609 1.80855469 -0.02449219 2.74023438 -0.03710938 C10.0365858 -0.05275559 17.72289003 0.04442669 23.9375 4.1875 C23.9375 4.8475 23.9375 5.5075 23.9375 6.1875 C22.81601562 5.88005859 22.81601562 5.88005859 21.671875 5.56640625 C20.68703125 5.29699219 19.7021875 5.02757813 18.6875 4.75 C17.22570312 4.34974609 17.22570312 4.34974609 15.734375 3.94140625 C14.81140625 3.69261719 13.8884375 3.44382812 12.9375 3.1875 C12.32777344 2.99414062 11.71804688 2.80078125 11.08984375 2.6015625 C0.30532387 0.52686358 -12.67343829 1.11998354 -21.9375 7.1875 C-23.31932126 8.17805288 -24.69513863 9.17708035 -26.0625 10.1875 C-27.0525 10.8475 -28.0425 11.5075 -29.0625 12.1875 C-27.86350302 9.1043649 -26.58549523 6.12470508 -25.0625 3.1875 C-24.0415625 3.249375 -24.0415625 3.249375 -23 3.3125 C-15.07208434 2.97514189 -8.15013564 0.00564023 0 0 Z " fill="#293217" transform="translate(343.0625,103.8125)"/>
<path d="M0 0 C3.48677555 2.69432656 4.11783965 5.7927737 5 10 C6.00874084 19.68739049 2.93601613 26.50187437 -3 34 C-3.33 34 -3.66 34 -4 34 C-4.25 31.75 -4.25 31.75 -4 29 C-2.66666667 27.66666667 -1.33333333 26.33333333 0 25 C1.69342639 19.35524537 1.30950618 12.8533081 1 7 C0.67 6.67 0.34 6.34 0 6 C-0.04080783 4.00041636 -0.04254356 1.99954746 0 0 Z " fill="#DCB42D" transform="translate(108,238)"/>
<path d="M0 0 C2.32416296 0.08586809 4.65083307 0.10711043 6.9765625 0.09765625 C7.66181 0.0962413 8.3470575 0.09482635 9.05307007 0.09336853 C11.24375761 0.08776675 13.4343433 0.07521406 15.625 0.0625 C17.10937352 0.05748522 18.59374865 0.05292228 20.078125 0.04882812 C23.71878315 0.03779677 27.35938164 0.02053099 31 0 C26.69054518 4.30945482 17.79452215 3.18253221 11.9375 3.1875 C10.7918457 3.20586914 10.7918457 3.20586914 9.62304688 3.22460938 C4.73598369 3.23715103 0.68773177 2.53916786 -4 1 C-8.39129502 0.08514687 -12.51740402 -0.08965192 -17 0 C-17 -0.33 -17 -0.66 -17 -1 C-11.54358766 -2.25917208 -5.136435 -2.5682175 0 0 Z " fill="#CDAB3D" transform="translate(331,135)"/>
<path d="M0 0 C0 0.33 0 0.66 0 1 C-0.77190674 1.14622803 -1.54381348 1.29245605 -2.33911133 1.44311523 C-5.83064924 2.10577932 -9.32157757 2.7716015 -12.8125 3.4375 C-14.63491211 3.78264648 -14.63491211 3.78264648 -16.49414062 4.13476562 C-17.65751953 4.35712891 -18.82089844 4.57949219 -20.01953125 4.80859375 C-21.09307861 5.01282959 -22.16662598 5.21706543 -23.27270508 5.42749023 C-26.07518227 5.9614029 -26.07518227 5.9614029 -29 7 C-36.64876526 8.24303777 -44.23916442 9.3167688 -52 9 C-49.3303292 7.55743924 -46.98575409 6.65859181 -44.00097656 6.13037109 C-43.22627014 5.99037689 -42.45156372 5.85038269 -41.65338135 5.70614624 C-40.40956696 5.49195541 -40.40956696 5.49195541 -39.140625 5.2734375 C-38.27741638 5.12089508 -37.41420776 4.96835266 -36.52484131 4.81118774 C-34.69972362 4.49047102 -32.87404217 4.17294835 -31.04785156 3.85839844 C-28.27228706 3.37885064 -25.49943648 2.88546422 -22.7265625 2.390625 C-20.94806349 2.07988763 -19.1694218 1.76996558 -17.390625 1.4609375 C-16.56951233 1.31409515 -15.74839966 1.16725281 -14.90240479 1.01596069 C-9.85979669 0.15970161 -5.11518841 -0.1368441 0 0 Z " fill="#CCB43E" transform="translate(296,120)"/>
<path d="M0 0 C0 0.66 0 1.32 0 2 C-1.13179687 2.12117187 -2.26359375 2.24234375 -3.4296875 2.3671875 C-4.91151031 2.53600276 -6.39327842 2.70529855 -7.875 2.875 C-8.99455078 2.99294922 -8.99455078 2.99294922 -10.13671875 3.11328125 C-14.52555407 3.5080769 -14.52555407 3.5080769 -18 6 C-20.06298828 6.22705078 -20.06298828 6.22705078 -22.5703125 6.1953125 C-23.46621094 6.18886719 -24.36210937 6.18242187 -25.28515625 6.17578125 C-26.22230469 6.15902344 -27.15945312 6.14226562 -28.125 6.125 C-29.06988281 6.11597656 -30.01476562 6.10695312 -30.98828125 6.09765625 C-33.32577292 6.07404522 -35.66276123 6.04111516 -38 6 C-38 5.67 -38 5.34 -38 5 C-33.71446631 4.28070678 -29.4277733 3.56890262 -25.13989258 2.86376953 C-23.68382919 2.62327131 -22.22809152 2.38079185 -20.77270508 2.13623047 C-18.67092762 1.78341411 -16.56805041 1.43793125 -14.46484375 1.09375 C-12.57173462 0.77954102 -12.57173462 0.77954102 -10.64038086 0.45898438 C-7.05026942 0.00633804 -3.61413196 -0.08144523 0 0 Z " fill="#2F3A1B" transform="translate(188,155)"/>
<path d="M0 0 C-1.1196986 1.00593243 -2.2459412 2.0045849 -3.375 3 C-4.31472656 3.8353125 -4.31472656 3.8353125 -5.2734375 4.6875 C-7 6 -7 6 -9 6 C-9 6.66 -9 7.32 -9 8 C-9.99 8.33 -10.98 8.66 -12 9 C-12 8.34 -12 7.68 -12 7 C-12.721875 7.185625 -13.44375 7.37125 -14.1875 7.5625 C-17.12826973 8.01995307 -19.14103058 7.73516357 -22 7 C-19.03496487 4.03496487 -15.47036557 3.18396397 -11.5625 1.8125 C-10.78583984 1.52697266 -10.00917969 1.24144531 -9.20898438 0.94726562 C-8.46068359 0.68236328 -7.71238281 0.41746094 -6.94140625 0.14453125 C-6.25763916 -0.09934326 -5.57387207 -0.34321777 -4.86938477 -0.59448242 C-3 -1 -3 -1 0 0 Z " fill="#1B3248" transform="translate(223,37)"/>
<path d="M0 0 C2.6015625 0.0234375 2.6015625 0.0234375 5.625 0.375 C6.62789063 0.48585938 7.63078125 0.59671875 8.6640625 0.7109375 C9.82035156 0.85402344 9.82035156 0.85402344 11 1 C2.33811934 5.65445635 -7.25328673 7.60935017 -17 8 C-15.68 7.67 -14.36 7.34 -13 7 C-13 6.34 -13 5.68 -13 5 C-12.22914063 4.80664062 -11.45828125 4.61328125 -10.6640625 4.4140625 C-9.66117187 4.15367187 -8.65828125 3.89328125 -7.625 3.625 C-6.62726563 3.36976563 -5.62953125 3.11453125 -4.6015625 2.8515625 C-1.87458985 2.17595681 -1.87458985 2.17595681 0 0 Z " fill="#4A4D58" transform="translate(430,347)"/>
<path d="M0 0 C-3.54082916 2.1244975 -6.94991891 2.46508363 -11 3 C-11.33 3.33 -11.66 3.66 -12 4 C-13.80811184 4.20896317 -15.62216032 4.36780361 -17.4375 4.5 C-21.36434915 4.71419183 -21.36434915 4.71419183 -25 6 C-26.87862875 5.91255632 -28.75455181 5.75824458 -30.625 5.5625 C-31.62789063 5.46066406 -32.63078125 5.35882813 -33.6640625 5.25390625 C-34.43492187 5.17011719 -35.20578125 5.08632812 -36 5 C-36 4.67 -36 4.34 -36 4 C-23.9933002 1.7619399 -12.25946188 -0.2313106 0 0 Z " fill="#28351C" transform="translate(312,137)"/>
<path d="M0 0 C0 0.33 0 0.66 0 1 C-10.71331736 3.73861328 -20.98969453 4.63798315 -32 5 C-24.61477539 -2.38522461 -9.64803133 -0.28944094 0 0 Z " fill="#27361D" transform="translate(314,116)"/>
<path d="M0 0 C-0.33 0.66 -0.66 1.32 -1 2 C-0.01 2.33 0.98 2.66 2 3 C2.66 3.33 3.32 3.66 4 4 C4.99 4.33 5.98 4.66 7 5 C7 5.66 7 6.32 7 7 C10.465 6.505 10.465 6.505 14 6 C14.33 6.99 14.66 7.98 15 9 C6.76557056 8.67580986 -0.29789712 6.88996879 -8 4 C-7 1 -7 1 -4.5625 -0.25 C-2 -1 -2 -1 0 0 Z " fill="#2D3540" transform="translate(259,346)"/>
<path d="M0 0 C0.33 0.99 0.66 1.98 1 3 C-2.48824417 9.17150891 -7.58008575 10.79827007 -14.0390625 13.21484375 C-17 14 -17 14 -20 13 C-19.67 12.01 -19.34 11.02 -19 10 C-18.01 10 -17.02 10 -16 10 C-15.34 9.67 -14.68 9.34 -14 9 C-13.67 9.33 -13.34 9.66 -13 10 C-12.67 9.34 -12.34 8.68 -12 8 C-10.865625 7.731875 -9.73125 7.46375 -8.5625 7.1875 C-7.386875 6.795625 -6.21125 6.40375 -5 6 C-3.70339566 3.50965614 -3.70339566 3.50965614 -3 1 C-2.01 0.67 -1.02 0.34 0 0 Z " fill="#536572" transform="translate(687,124)"/>
<path d="M0 0 C0 1.98 0 3.96 0 6 C0.598125 5.79375 1.19625 5.5875 1.8125 5.375 C4 5 4 5 7 7 C7 7.66 7 8.32 7 9 C-2.15540044 8.43267818 -2.15540044 8.43267818 -6 5 C-7.64797236 4.28837557 -9.31165408 3.60968047 -11 3 C-10.401875 2.87625 -9.80375 2.7525 -9.1875 2.625 C0 0 0 0 0 0 Z " fill="#404952" transform="translate(212,328)"/>
<path d="M0 0 C-5.66209009 1.27853647 -11.32504273 2.46964532 -17.03125 3.53515625 C-18.99099571 3.81576359 -18.99099571 3.81576359 -20 5 C-25.36437132 6.00581962 -30.55299453 6.11116338 -36 6 C-32.59142822 3.72761881 -29.57148429 3.17966201 -25.625 2.5 C-24.91762695 2.37399414 -24.21025391 2.24798828 -23.48144531 2.11816406 C-21.32226455 1.73747405 -19.16131543 1.36834947 -17 1 C-15.11667969 0.66742188 -15.11667969 0.66742188 -13.1953125 0.328125 C-3.76357466 -1.25452489 -3.76357466 -1.25452489 0 0 Z " fill="#D3BB3D" transform="translate(170,140)"/>
<path d="M0 0 C0 0.33 0 0.66 0 1 C-3.96 1.99 -7.92 2.98 -12 4 C-12 4.33 -12 4.66 -12 5 C-20.25 5 -28.5 5 -37 5 C-37 4.67 -37 4.34 -37 4 C-36.06800781 3.96261719 -35.13601562 3.92523438 -34.17578125 3.88671875 C-26.47137274 3.48942367 -19.47048211 2.54401337 -11.96484375 0.6328125 C-7.87259184 -0.24063257 -4.16765382 -0.2119146 0 0 Z " fill="#2F3B1D" transform="translate(275,142)"/>
<path d="M0 0 C-3.05223219 2.12731335 -4.93749324 2.99258394 -8.6875 3.4375 C-9.780625 3.623125 -10.87375 3.80875 -12 4 C-13.51294288 5.93597032 -13.51294288 5.93597032 -14 8 C-17.74161103 8 -21.28953557 7.48661829 -25 7 C-20.94628338 4.90930808 -16.78466445 3.35832546 -12.5 1.8125 C-11.74074219 1.52697266 -10.98148438 1.24144531 -10.19921875 0.94726562 C-9.46316406 0.68236328 -8.72710937 0.41746094 -7.96875 0.14453125 C-7.30294922 -0.09934326 -6.63714844 -0.34321777 -5.95117188 -0.59448242 C-3.65869073 -1.07093527 -2.20452957 -0.71917555 0 0 Z " fill="#394D5D" transform="translate(142,63)"/>
<path d="M0 0 C0.66 0 1.32 0 2 0 C5.06606823 8.04308131 6.69475466 15.39208128 7 24 C6.34 23.67 5.68 23.34 5 23 C4.22535443 20.49774865 3.55073554 18.04154655 2.9375 15.5 C2.14910373 10.88163786 2.14910373 10.88163786 0 7 C-0.04092937 4.66702567 -0.04241723 2.33294775 0 0 Z " fill="#EED357" transform="translate(104,272)"/>
<path d="M0 0 C0 1.98 0 3.96 0 6 C-3.62528568 6.20140476 -5.86501708 5.85776765 -9 4 C-9.33 4.66 -9.66 5.32 -10 6 C-11.66666667 6.33333333 -13.33333333 6.66666667 -15 7 C-15.33 7.66 -15.66 8.32 -16 9 C-17.32 8.34 -18.64 7.68 -20 7 C-16.63595782 4.75730522 -13.24283077 3.61344256 -9.4375 2.375 C-8.75236328 2.14554687 -8.06722656 1.91609375 -7.36132812 1.6796875 C-2.26727586 0 -2.26727586 0 0 0 Z " fill="#455967" transform="translate(86,79)"/>
<path d="M0 0 C5.27749285 0.53851968 9.25645564 1.77343836 14 4 C13.01 4.33 12.02 4.66 11 5 C10.071875 5.391875 9.14375 5.78375 8.1875 6.1875 C4.38636267 7.15641736 2.54934225 6.52114668 -1 5 C-1 2 -1 2 0 0 Z " fill="#0A2538" transform="translate(553,64)"/>
<path d="M0 0 C2.475 0.99 2.475 0.99 5 2 C4.01 2.495 4.01 2.495 3 3 C2.67 3.99 2.34 4.98 2 6 C1.34 6 0.68 6 0 6 C-0.33 6.99 -0.66 7.98 -1 9 C0.98 9.495 0.98 9.495 3 10 C1.74433095 13.47723736 0.26656844 16.09382458 -2 19 C-2.05428973 16.77110504 -2.09292338 14.54182529 -2.125 12.3125 C-2.15980469 10.45044922 -2.15980469 10.45044922 -2.1953125 8.55078125 C-2.01032021 5.18762143 -1.45767895 3.0014413 0 0 Z " fill="#1A3549" transform="translate(2,107)"/>
<path d="M0 0 C7.26 0.33 14.52 0.66 22 1 C21.67 1.66 21.34 2.32 21 3 C14.45452324 5.18182559 7.37412537 4.4411544 1 2 C0.67 1.34 0.34 0.68 0 0 Z " fill="#2C3A23" transform="translate(330,137)"/>
<path d="M0 0 C10.55808656 1.92710706 10.55808656 1.92710706 15 4 C12 5 12 5 8 5 C7.67 5.66 7.34 6.32 7 7 C5.35 7 3.7 7 2 7 C2 6.34 2 5.68 2 5 C0.68 4.34 -0.64 3.68 -2 3 C-1.34 2.67 -0.68 2.34 0 2 C0 1.34 0 0.68 0 0 Z " fill="#445968" transform="translate(604,80)"/>
<path d="M0 0 C8.63322991 0.51799379 17.78438287 3.18958858 25 8 C17.57142857 8.14285714 17.57142857 8.14285714 14 7 C14 6.34 14 5.68 14 5 C12.35 5.33 10.7 5.66 9 6 C8.67 5.01 8.34 4.02 8 3 C5.69 3 3.38 3 1 3 C0.67 2.01 0.34 1.02 0 0 Z " fill="#445863" transform="translate(351,1)"/>
<path d="M0 0 C0 0.33 0 0.66 0 1 C-0.90621094 1.12117187 -1.81242187 1.24234375 -2.74609375 1.3671875 C-8.95889729 2.22185889 -15.05694752 3.16845015 -21.15625 4.625 C-23.46219886 5.09400655 -25.65543149 5.15126248 -28 5 C-27 3 -27 3 -25.05859375 2.1484375 C-16.62992811 -0.33870974 -8.69336987 -0.29450563 0 0 Z " fill="#DABD38" transform="translate(276,141)"/>
<path d="M0 0 C-1.56759737 1.80273697 -2.51008921 2.88568748 -4.875 3.4375 C-7.24949528 3.90265938 -7.24949528 3.90265938 -9.5 6.125 C-12 8 -12 8 -14.25 7.9375 C-16 7 -16 7 -17 4 C-14.73291675 3.1344953 -12.46224921 2.28240685 -10.1875 1.4375 C-9.54490234 1.19064453 -8.90230469 0.94378906 -8.24023438 0.68945312 C-3.33984375 -1.11328125 -3.33984375 -1.11328125 0 0 Z " fill="#485B69" transform="translate(249,29)"/>
<path d="M0 0 C-3.19364105 1.81179992 -6.06725161 2.49907984 -9.68359375 3.0703125 C-10.77607422 3.24433594 -11.86855469 3.41835937 -12.99414062 3.59765625 C-14.13044922 3.77167969 -15.26675781 3.94570312 -16.4375 4.125 C-17.56994141 4.30675781 -18.70238281 4.48851562 -19.86914062 4.67578125 C-24.62814349 5.42174163 -29.17258653 6.11363812 -34 6 C-30.81071358 4.18945498 -27.92243753 3.51104148 -24.3125 2.9375 C-20.8482004 2.62947593 -20.8482004 2.62947593 -18 1 C-15.92180264 0.76224013 -13.83655612 0.58486887 -11.75 0.4375 C-10.04070312 0.31181641 -10.04070312 0.31181641 -8.296875 0.18359375 C-5.52033379 0.02897593 -2.77949497 -0.0365723 0 0 Z " fill="#2E3817" transform="translate(170,138)"/>
<path d="M0 0 C-0.33 0.99 -0.66 1.98 -1 3 C-1.66 2.67 -2.32 2.34 -3 2 C-3.33 2.66 -3.66 3.32 -4 4 C-4.66 3.67 -5.32 3.34 -6 3 C-6.33 4.65 -6.66 6.3 -7 8 C-9.375 8.125 -9.375 8.125 -12 8 C-12.66 7.34 -13.32 6.68 -14 6 C-14.99 5.67 -15.98 5.34 -17 5 C-14.73117913 4.16080602 -12.46022973 3.32848276 -10.1875 2.5 C-9.54490234 2.26152344 -8.90230469 2.02304688 -8.24023438 1.77734375 C-5.35066261 0.72931254 -3.09923939 0 0 0 Z " fill="#536675" transform="translate(112,71)"/>
<path d="M0 0 C2 2 2 2 2.1875 3.98828125 C1.82202578 8.51863881 1.4789691 10.47647564 -1.6875 13.9375 C-4.79071089 15.86968792 -7.47622052 17.07710537 -11 18 C-10.25 16.0625 -10.25 16.0625 -9 14 C-7.66666667 13.66666667 -6.33333333 13.33333333 -5 13 C-4.30062468 11.68352881 -3.63270867 10.34977849 -3 9 C-2.01 8.67 -1.02 8.34 0 8 C0 5.36 0 2.72 0 0 Z " fill="#C9AB3D" transform="translate(373,117)"/>
<path d="M0 0 C0.33 0 0.66 0 1 0 C1 3.63 1 7.26 1 11 C2.0725 11.103125 3.145 11.20625 4.25 11.3125 C7.85820872 11.97400493 9.36395023 12.57483421 12 15 C8.03247295 15.93353578 5.83373618 16.41686809 2.125 14.5625 C-0.7050432 11.14980085 -1.04463906 8.35677204 -1 4 C-0.5625 1.5 -0.5625 1.5 0 0 Z " fill="#F3DC6D" transform="translate(64,305)"/>
<path d="M0 0 C1.22589844 0.01353516 1.22589844 0.01353516 2.4765625 0.02734375 C3.41628906 0.04474609 3.41628906 0.04474609 4.375 0.0625 C4.375 0.3925 4.375 0.7225 4.375 1.0625 C1.735 1.3925 -0.905 1.7225 -3.625 2.0625 C-3.625 8.9925 -3.625 15.9225 -3.625 23.0625 C-3.955 23.0625 -4.285 23.0625 -4.625 23.0625 C-4.66238281 21.93070313 -4.69976562 20.79890625 -4.73828125 19.6328125 C-4.80393082 18.15100795 -4.87037851 16.66923861 -4.9375 15.1875 C-4.96005859 14.44113281 -4.98261719 13.69476563 -5.00585938 12.92578125 C-5.10311945 10.962896 -5.35542294 9.00921678 -5.625 7.0625 C-6.615 6.4025 -7.605 5.7425 -8.625 5.0625 C-6.51899199 0.39919656 -5.01778996 -0.07168271 0 0 Z " fill="#F9E7A1" transform="translate(104.625,166.9375)"/>
<path d="M0 0 C0.74056641 0.00451172 1.48113281 0.00902344 2.24414062 0.01367188 C4.05862899 0.02537825 5.87307534 0.04331102 7.6875 0.0625 C7.6875 0.3925 7.6875 0.7225 7.6875 1.0625 C3.39698619 1.59314306 -0.89504031 2.11035431 -5.1875 2.625 C-7.02248047 2.85219727 -7.02248047 2.85219727 -8.89453125 3.08398438 C-10.06113281 3.22255859 -11.22773438 3.36113281 -12.4296875 3.50390625 C-14.04786377 3.70028687 -14.04786377 3.70028687 -15.69873047 3.90063477 C-18.3125 4.0625 -18.3125 4.0625 -20.3125 3.0625 C-13.31401943 1.00412336 -7.30371679 -0.08485104 0 0 Z " fill="#25361A" transform="translate(264.3125,122.9375)"/>
<path d="M0 0 C0.82242187 0.05220703 1.64484375 0.10441406 2.4921875 0.15820312 C4.49522899 0.28630462 6.49768871 0.42345061 8.5 0.5625 C8.5 0.8925 8.5 1.2225 8.5 1.5625 C0.57726979 2.45162403 -7.53654027 3.25446484 -15.5 2.5625 C-16.16 1.9025 -16.82 1.2425 -17.5 0.5625 C-11.52842601 -0.36199827 -6.01758541 -0.4263273 0 0 Z " fill="#7E858D" transform="translate(374.5,360.4375)"/>
<path d="M0 0 C0 0.66 0 1.32 0 2 C-7.14908568 8.5363069 -14.70522038 9.16025482 -24 9 C-24 8.67 -24 8.34 -24 8 C-21.77092605 7.52040222 -19.54173703 7.0413392 -17.3125 6.5625 C-16.07113281 6.29566406 -14.82976562 6.02882813 -13.55078125 5.75390625 C-10.70387985 5.14944864 -7.85544374 4.56235316 -5 4 C-4.67 3.01 -4.34 2.02 -4 1 C-2 0 -2 0 0 0 Z " fill="#CEAF37" transform="translate(324,111)"/>
<path d="M0 0 C20.21359223 -0.52427184 20.21359223 -0.52427184 27 4 C27 4.66 27 5.32 27 6 C26.3915625 5.80664062 25.783125 5.61328125 25.15625 5.4140625 C16.8541568 2.94785246 8.58030892 1.91508941 0 1 C0 0.67 0 0.34 0 0 Z " fill="#32381A" transform="translate(340,104)"/>
<path d="M0 0 C0.33 0 0.66 0 1 0 C1.33337803 4.77841845 0.55194066 7.01897257 -2 11 C-3.51874812 15.8323804 -3.08762552 20.98587301 -3 26 C-3.66 26 -4.32 26 -5 26 C-5.72103004 10.43776824 -5.72103004 10.43776824 -1 4 C-0.23959428 1.73014106 -0.23959428 1.73014106 0 0 Z " fill="#EDCE47" transform="translate(70,290)"/>
<path d="M0 0 C0.33 0 0.66 0 1 0 C1.61658126 9.86530012 -0.90385873 16.29961103 -7 24 C-7.33 24 -7.66 24 -8 24 C-8.25 21.75 -8.25 21.75 -8 19 C-6.70896357 17.6256709 -5.3743291 16.29103643 -4 15 C-3.2127322 12.8618034 -3.2127322 12.8618034 -3 11 C-2.34 11 -1.68 11 -1 11 C-0.67 7.37 -0.34 3.74 0 0 Z " fill="#DFC86E" transform="translate(112,248)"/>
<path d="M0 0 C0 0.33 0 0.66 0 1 C-0.90363281 1.10957031 -1.80726562 1.21914062 -2.73828125 1.33203125 C-3.91777344 1.49058594 -5.09726563 1.64914063 -6.3125 1.8125 C-7.48425781 1.96332031 -8.65601562 2.11414063 -9.86328125 2.26953125 C-13.09496955 3.0221162 -13.95153853 3.54184624 -16 6 C-18.6875 7.1875 -18.6875 7.1875 -21 8 C-21 6.68 -21 5.36 -21 4 C-14.86765753 -0.86980137 -7.42122459 -0.13199807 0 0 Z " fill="#D2BC44" transform="translate(103,150)"/>
<path d="M0 0 C-6.85874602 4.57249735 -16.07336682 3.09894549 -24 3 C-24 2.67 -24 2.34 -24 2 C-15.92046224 0.18655665 -8.26747851 -0.23658921 0 0 Z " fill="#1A2E21" transform="translate(136,143)"/>
<path d="M0 0 C-1.65365406 1.02137457 -3.32376502 2.01612294 -5 3 C-5.969375 3.5775 -6.93875 4.155 -7.9375 4.75 C-11.48525537 6.19806341 -13.34540815 5.95715501 -17 5 C-14.51737568 2.51737568 -12.38224713 1.92713025 -9.0625 0.8125 C-8.00160156 0.44769531 -6.94070312 0.08289062 -5.84765625 -0.29296875 C-3 -1 -3 -1 0 0 Z " fill="#516574" transform="translate(192,47)"/>
<path d="M0 0 C-1.59792102 1.17520646 -3.20356908 2.33991247 -4.8125 3.5 C-6.15248047 4.47453125 -6.15248047 4.47453125 -7.51953125 5.46875 C-10 7 -10 7 -13 7 C-13 6.01 -13 5.02 -13 4 C-12.34 4 -11.68 4 -11 4 C-10.67 3.01 -10.34 2.02 -10 1 C-6.19730268 -0.6900877 -3.94727832 -1.19873962 0 0 Z " fill="#414A53" transform="translate(506,320)"/>
<path d="M0 0 C2 2 2 2 2.125 4.625 C2.08375 5.40875 2.0425 6.1925 2 7 C1.34 7 0.68 7 0 7 C0.33 12.28 0.66 17.56 1 23 C-2.30336603 16.39326794 -3.04826 10.16164666 -1 3 C-0.67 2.01 -0.34 1.02 0 0 Z " fill="#E2C569" transform="translate(69,241)"/>
<path d="M0 0 C6.83981276 0.51621228 12.63876684 2.48590969 19 5 C16.17068148 5.80928705 13.68915923 6.11148599 10.75 6.0625 C8.89375 6.0315625 8.89375 6.0315625 7 6 C7 5.01 7 4.02 7 3 C4.69 3 2.38 3 0 3 C0 2.01 0 1.02 0 0 Z " fill="#72818B" transform="translate(377,9)"/>
<path d="M0 0 C2.475 0.99 2.475 0.99 5 2 C3.06382979 8.70212766 3.06382979 8.70212766 0 11 C-0.66 11 -1.32 11 -2 11 C-1.67 9.35 -1.34 7.7 -1 6 C-0.34 6 0.32 6 1 6 C0.34 4.35 -0.32 2.7 -1 1 C-0.67 0.67 -0.34 0.34 0 0 Z " fill="#162330" transform="translate(521,299)"/>
<path d="M0 0 C3 1 3 1 4 3 C4.46244252 8.37723857 4.06810447 12.95899535 2 18 C0.02 18.33 -1.96 18.66 -4 19 C-3.195625 18.360625 -2.39125 17.72125 -1.5625 17.0625 C1.73489177 13.12171471 2.20117098 10.05670684 2 5 C1.21136479 2.05338594 1.21136479 2.05338594 0 0 Z " fill="#363A1F" transform="translate(372,114)"/>
<path d="M0 0 C5.93929328 0.37120583 10.42486651 2.0979896 15 6 C16.23046875 8.16796875 16.23046875 8.16796875 17 10 C16.01 9.67 15.02 9.34 14 9 C14 8.34 14 7.68 14 7 C12.865625 6.731875 11.73125 6.46375 10.5625 6.1875 C9.386875 5.795625 8.21125 5.40375 7 5 C6.67 4.01 6.34 3.02 6 2 C4.35 2 2.7 2 1 2 C0.67 1.34 0.34 0.68 0 0 Z " fill="#CBAD3F" transform="translate(356,107)"/>
<path d="M0 0 C1.25425781 0.00902344 2.50851562 0.01804688 3.80078125 0.02734375 C4.75339844 0.03894531 5.70601563 0.05054688 6.6875 0.0625 C6.06875 0.330625 5.45 0.59875 4.8125 0.875 C2.3879767 2.01806848 2.3879767 2.01806848 0.6875 5.0625 C0.0275 5.0625 -0.6325 5.0625 -1.3125 5.0625 C-1.6425 4.0725 -1.9725 3.0825 -2.3125 2.0625 C-3.3025 2.5575 -3.3025 2.5575 -4.3125 3.0625 C-7.15217231 3.0625 -9.54985711 2.65982819 -12.3125 2.0625 C-12.3125 1.7325 -12.3125 1.4025 -12.3125 1.0625 C-8.15623632 0.05323521 -4.26884906 -0.03989579 0 0 Z " fill="#405A6A" transform="translate(344.3125,-0.0625)"/>
<path d="M0 0 C0.33 0 0.66 0 1 0 C1 1.65 1 3.3 1 5 C2.32 5.33 3.64 5.66 5 6 C5 6.66 5 7.32 5 8 C6.45833358 9.62514468 6.45833358 9.62514468 8 11 C7.67 11.66 7.34 12.32 7 13 C3.78920572 11.96795898 2.40059709 10.41251338 0.6875 7.625 C-1 4 -1 4 -0.75 1.5625 C-0.5025 1.046875 -0.255 0.53125 0 0 Z " fill="#475058" transform="translate(162,297)"/>
<path d="M0 0 C-5.5439852 2.80512399 -9.77270879 3.3935213 -15.9375 3.1875 C-16.71673828 3.17396484 -17.49597656 3.16042969 -18.29882812 3.14648438 C-20.19952404 3.11150224 -22.09985834 3.05770959 -24 3 C-24 2.67 -24 2.34 -24 2 C-22.58847656 1.80083984 -22.58847656 1.80083984 -21.1484375 1.59765625 C-19.90320313 1.42105469 -18.65796875 1.24445313 -17.375 1.0625 C-15.53035156 0.80146484 -15.53035156 0.80146484 -13.6484375 0.53515625 C-11.32269558 0.19401423 -9.001253 -0.17902069 -6.6875 -0.59375 C-4.05052072 -0.99236315 -2.49287568 -0.86291851 0 0 Z " fill="#39431C" transform="translate(212,152)"/>
<path d="M0 0 C0 0.33 0 0.66 0 1 C-15.74487472 4.44419134 -15.74487472 4.44419134 -23 4 C-15.45088821 -0.2275026 -8.46749702 -0.25027085 0 0 Z " fill="#3B4219" transform="translate(204,133)"/>
<path d="M0 0 C1.20366211 0.00483398 1.20366211 0.00483398 2.43164062 0.00976562 C3.68170898 0.02233398 3.68170898 0.02233398 4.95703125 0.03515625 C6.22450195 0.04192383 6.22450195 0.04192383 7.51757812 0.04882812 C9.6015928 0.06060222 11.68557102 0.07853735 13.76953125 0.09765625 C13.76953125 0.42765625 13.76953125 0.75765625 13.76953125 1.09765625 C11.27025356 1.4373639 8.7703353 1.76953657 6.26953125 2.09765625 C5.5734375 2.19304687 4.87734375 2.2884375 4.16015625 2.38671875 C-0.67747004 3.01381845 -5.35228071 3.18555153 -10.23046875 3.09765625 C-6.64270266 0.70581219 -4.2142193 -0.02988808 0 0 Z " fill="#CAB039" transform="translate(132.23046875,160.90234375)"/>
<path d="M0 0 C1.32 0.66 2.64 1.32 4 2 C4.33 1.34 4.66 0.68 5 0 C7.31 0.33 9.62 0.66 12 1 C7.62615587 3.91589609 4.29457529 5.30254716 -1 5 C-0.67 3.35 -0.34 1.7 0 0 Z " fill="#51606E" transform="translate(628,146)"/>
<path d="M0 0 C-0.99 0.66 -1.98 1.32 -3 2 C-3.66 1.67 -4.32 1.34 -5 1 C-5.33 1.66 -5.66 2.32 -6 3 C-7.546875 2.9690625 -7.546875 2.9690625 -9.125 2.9375 C-12.55152969 2.99276661 -15.64572414 3.34550715 -19 4 C-14.04986492 -0.95013508 -6.5144657 -1.55780701 0 0 Z " fill="#667480" transform="translate(62,89)"/>
<path d="M0 0 C-2.89347207 3.12807791 -4.53634551 4.8293407 -8.84765625 5.33203125 C-11.58028129 5.31440141 -14.27641199 5.21808089 -17 5 C-14.51737568 2.51737568 -12.38224713 1.92713025 -9.0625 0.8125 C-8.00160156 0.44769531 -6.94070312 0.08289062 -5.84765625 -0.29296875 C-3 -1 -3 -1 0 0 Z " fill="#717E8A" transform="translate(223,37)"/>
<path d="M0 0 C1.77226453 0.28284018 3.542788 0.57660498 5.3125 0.875 C6.29863281 1.03742187 7.28476562 1.19984375 8.30078125 1.3671875 C11 2 11 2 14 4 C11.36 4 8.72 4 6 4 C6 4.66 6 5.32 6 6 C4.68 6 3.36 6 2 6 C2 4.68 2 3.36 2 2 C1.34 1.34 0.68 0.68 0 0 Z " fill="#556776" transform="translate(402,17)"/>
<path d="M0 0 C4.95 0.33 9.9 0.66 15 1 C15 1.33 15 1.66 15 2 C9.61972975 3.19088986 4.54708616 4.2919519 -1 4 C-0.67 2.68 -0.34 1.36 0 0 Z " fill="#585F6E" transform="translate(384,357)"/>
<path d="M0 0 C0 0.66 0 1.32 0 2 C3.465 1.505 3.465 1.505 7 1 C7.33 1.99 7.66 2.98 8 4 C-3.52164009 3.22095672 -3.52164009 3.22095672 -9 1 C-9 0.67 -9 0.34 -9 0 C-5.62182575 -0.84454356 -3.32534757 -1.10844919 0 0 Z " fill="#646971" transform="translate(266,351)"/>
<path d="M0 0 C1.32 0 2.64 0 4 0 C4 0.66 4 1.32 4 2 C4.66 2.33 5.32 2.66 6 3 C4.68 3.33 3.36 3.66 2 4 C2.99 4.99 3.98 5.98 5 7 C0.545 6.01 0.545 6.01 -4 5 C-3.34 4.01 -2.68 3.02 -2 2 C-1.34 2 -0.68 2 0 2 C0 1.34 0 0.68 0 0 Z " fill="#3A4D61" transform="translate(124,167)"/>
<path d="M0 0 C0.79921875 0.00902344 1.5984375 0.01804688 2.421875 0.02734375 C3.02515625 0.03894531 3.6284375 0.05054688 4.25 0.0625 C4.25 0.3925 4.25 0.7225 4.25 1.0625 C2.27 1.0625 0.29 1.0625 -1.75 1.0625 C-1.75 1.7225 -1.75 2.3825 -1.75 3.0625 C-3.5625 4.125 -3.5625 4.125 -5.75 5.0625 C-6.74 4.7325 -7.73 4.4025 -8.75 4.0625 C-8.75 3.0725 -8.75 2.0825 -8.75 1.0625 C-5.75519083 0.1901588 -3.11424089 -0.04579766 0 0 Z " fill="#B5A03D" transform="translate(117.75,163.9375)"/>
<path d="M0 0 C0.99 0 1.98 0 3 0 C3 0.99 3 1.98 3 3 C1.73392393 3.53229326 0.46189588 4.05044544 -0.8125 4.5625 C-1.52019531 4.85253906 -2.22789062 5.14257812 -2.95703125 5.44140625 C-5 6 -5 6 -8 5 C-7.67 4.01 -7.34 3.02 -7 2 C-6.01 2 -5.02 2 -4 2 C-3.34 1.67 -2.68 1.34 -2 1 C-1.67 1.33 -1.34 1.66 -1 2 C-0.67 1.34 -0.34 0.68 0 0 Z " fill="#3D525E" transform="translate(675,132)"/>
<path d="M0 0 C3.8063457 0.67170806 7.35206816 1.72746564 11 3 C11 3.33 11 3.66 11 4 C5.03201996 5.03291962 2.04414952 5.36276635 -3 2 C-2.01 2 -1.02 2 0 2 C0 1.34 0 0.68 0 0 Z " fill="#526173" transform="translate(637,90)"/>
<path d="M0 0 C4.83628305 0.99043705 9.47618873 1.95698846 14 4 C11.03315271 4.9889491 9.48851928 5.07889872 6.4375 4.8125 C5.65246094 4.75707031 4.86742187 4.70164062 4.05859375 4.64453125 C2 4 2 4 0.72265625 1.94921875 C0.48417969 1.30597656 0.24570312 0.66273437 0 0 Z " fill="#697986" transform="translate(579,72)"/>
<path d="M0 0 C0.99 0 1.98 0 3 0 C3 0.66 3 1.32 3 2 C3.62648437 2.06058594 4.25296875 2.12117187 4.8984375 2.18359375 C5.71570312 2.26738281 6.53296875 2.35117188 7.375 2.4375 C8.59316406 2.55931641 8.59316406 2.55931641 9.8359375 2.68359375 C12 3 12 3 14 4 C14 4.66 14 5.32 14 6 C8.72250715 5.46148032 4.74354436 4.22656164 0 2 C0 1.34 0 0.68 0 0 Z " fill="#5E6A77" transform="translate(34,141)"/>
<path d="M0 0 C1.32 0.33 2.64 0.66 4 1 C2.90081184 1.98475214 1.7954398 2.96260473 0.6875 3.9375 C0.07261719 4.48277344 -0.54226563 5.02804687 -1.17578125 5.58984375 C-3 7 -3 7 -6 8 C-6 7.34 -6 6.68 -6 6 C-6.66 5.67 -7.32 5.34 -8 5 C-7.01 4.67 -6.02 4.34 -5 4 C-4.34 4.33 -3.68 4.66 -3 5 C-3 4.34 -3 3.68 -3 3 C-2.01 3 -1.02 3 0 3 C0 2.01 0 1.02 0 0 Z " fill="#666C73" transform="translate(515,310)"/>
<path d="M0 0 C5.75 3.625 5.75 3.625 8 7 C5.23723823 6.47731534 2.6739124 5.89130413 0 5 C-0.33 4.01 -0.66 3.02 -1 2 C-0.67 1.34 -0.34 0.68 0 0 Z " fill="#E5CB6C" transform="translate(100,231)"/>
<path d="M0 0 C1.45823212 -0.0270043 2.91660675 -0.04639787 4.375 -0.0625 C5.18710938 -0.07410156 5.99921875 -0.08570313 6.8359375 -0.09765625 C9 0 9 0 11 1 C11 1.66 11 2.32 11 3 C12.32 3.33 13.64 3.66 15 4 C11.8568669 5.57156655 9.634536 4.11705576 6.375 3.0625 C4.59222656 2.49208984 4.59222656 2.49208984 2.7734375 1.91015625 C1.85820312 1.60980469 0.94296875 1.30945313 0 1 C0 0.67 0 0.34 0 0 Z " fill="#72828B" transform="translate(129,174)"/>
<path d="M0 0 C2.31 0 4.62 0 7 0 C6.67 1.32 6.34 2.64 6 4 C3.125 4.125 3.125 4.125 0 4 C-0.66 3.34 -1.32 2.68 -2 2 C-1.34 2 -0.68 2 0 2 C0 1.34 0 0.68 0 0 Z " fill="#1C3449" transform="translate(117,167)"/>
<path d="M0 0 C0 1.32 0 2.64 0 4 C-6.435 4.495 -6.435 4.495 -13 5 C-8.94191935 2.2946129 -4.95110601 0 0 0 Z " fill="#677382" transform="translate(22,99)"/>
<path d="M0 0 C1.258125 -0.04125 2.51625 -0.0825 3.8125 -0.125 C4.52019531 -0.14820313 5.22789062 -0.17140625 5.95703125 -0.1953125 C8 0 8 0 11 2 C8.75 3.625 8.75 3.625 6 5 C2.63894049 4.03969728 1.98866286 2.98299429 0 0 Z M4 2 C4.33 2.66 4.66 3.32 5 4 C5.33 3.34 5.66 2.68 6 2 C5.34 2 4.68 2 4 2 Z " fill="#273D4E" transform="translate(528,58)"/>
<path d="M0 0 C11.52164009 1.92710706 11.52164009 1.92710706 17 4 C17 4.33 17 4.66 17 5 C15.02 5.33 13.04 5.66 11 6 C10.67 5.01 10.34 4.02 10 3 C7.36 3 4.72 3 2 3 C2 2.34 2 1.68 2 1 C1.34 0.67 0.68 0.34 0 0 Z " fill="#707B8A" transform="translate(456,34)"/>
<path d="M0 0 C2.00720923 0.28674418 4.0085944 0.61866701 6 1 C2.98509443 3.00993705 0.7850073 3.72623341 -2.6875 4.625 C-3.68136719 4.88539063 -4.67523437 5.14578125 -5.69921875 5.4140625 C-6.45847656 5.60742188 -7.21773437 5.80078125 -8 6 C-8 5.01 -8 4.02 -8 3 C-6.865625 2.690625 -5.73125 2.38125 -4.5625 2.0625 C-1.21224901 1.37075469 -1.21224901 1.37075469 0 0 Z " fill="#657480" transform="translate(592,160)"/>
<path d="M0 0 C2.475 0.99 2.475 0.99 5 2 C-3.05003427 7.36668951 -3.05003427 7.36668951 -7.22265625 6.58203125 C-7.80917969 6.38996094 -8.39570312 6.19789063 -9 6 C-8.43410156 5.73445312 -7.86820313 5.46890625 -7.28515625 5.1953125 C-6.55167969 4.84210938 -5.81820312 4.48890625 -5.0625 4.125 C-4.33160156 3.77695313 -3.60070312 3.42890625 -2.84765625 3.0703125 C-0.83667541 2.1315023 -0.83667541 2.1315023 0 0 Z " fill="#546A75" transform="translate(649,140)"/>
<path d="M0 0 C5.27749285 0.53851968 9.25645564 1.77343836 14 4 C10.52674819 5.1577506 7.63932552 5.06866652 4 5 C4.33 4.01 4.66 3.02 5 2 C3.35 1.67 1.7 1.34 0 1 C0 0.67 0 0.34 0 0 Z " fill="#6C7F8B" transform="translate(553,64)"/>
<path d="M0 0 C-2 2.5625 -2 2.5625 -5 5 C-7.89116824 5.14963532 -10.13399816 4.63149193 -13 4 C-10.56272708 2.37515139 -8.62713877 1.34310925 -5.9375 0.3125 C-5.24527344 0.04050781 -4.55304688 -0.23148437 -3.83984375 -0.51171875 C-2 -1 -2 -1 0 0 Z " fill="#5E6F7C" transform="translate(331,3)"/>
<path d="M0 0 C0.66 0.33 1.32 0.66 2 1 C1.34 2.32 0.68 3.64 0 5 C-4.29 5 -8.58 5 -13 5 C-13 4.67 -13 4.34 -13 4 C-12.31292969 3.87882813 -11.62585938 3.75765625 -10.91796875 3.6328125 C-9.56638672 3.38144531 -9.56638672 3.38144531 -8.1875 3.125 C-7.29417969 2.96257812 -6.40085937 2.80015625 -5.48046875 2.6328125 C-2.77272154 2.08811551 -2.77272154 2.08811551 0 0 Z " fill="#3D4222" transform="translate(365,133)"/>
<path d="M0 0 C2.475 0.99 2.475 0.99 5 2 C4.01 2.495 4.01 2.495 3 3 C2.67 3.99 2.34 4.98 2 6 C1.34 6 0.68 6 0 6 C-0.66 6.66 -1.32 7.32 -2 8 C-1.125 2.25 -1.125 2.25 0 0 Z " fill="#586979" transform="translate(2,107)"/>
<path d="M0 0 C1.32 0.33 2.64 0.66 4 1 C4.33 2.65 4.66 4.3 5 6 C2.69 5.34 0.38 4.68 -2 4 C-2 3.34 -2 2.68 -2 2 C-1.34 2 -0.68 2 0 2 C0 1.34 0 0.68 0 0 Z " fill="#0A1723" transform="translate(230,337)"/>
<path d="M0 0 C0 0.66 0 1.32 0 2 C-0.66 2 -1.32 2 -2 2 C-2 2.99 -2 3.98 -2 5 C-2.66 5 -3.32 5 -4 5 C-4.33 5.99 -4.66 6.98 -5 8 C-5.99 8 -6.98 8 -8 8 C-6.48291727 4.46014029 -4.24676932 0 0 0 Z " fill="#E8D076" transform="translate(78,233)"/>
<path d="M0 0 C0.90105469 0.00902344 1.80210937 0.01804688 2.73046875 0.02734375 C3.41753906 0.03894531 4.10460937 0.05054688 4.8125 0.0625 C1.69339144 1.85525866 -0.86432428 2.40540718 -4.4375 2.6875 C-5.32953125 2.76226562 -6.2215625 2.83703125 -7.140625 2.9140625 C-7.81609375 2.96304688 -8.4915625 3.01203125 -9.1875 3.0625 C-7.31499103 -0.68251794 -3.72136574 -0.04832943 0 0 Z " fill="#B6A43B" transform="translate(257.1875,142.9375)"/>
<path d="M0 0 C2.99324263 1.0975223 3.84610901 1.67682892 5.25 4.625 C5.4975 5.40875 5.745 6.1925 6 7 C4.02 6.34 2.04 5.68 0 5 C0 3.35 0 1.7 0 0 Z " fill="#5E6B78" transform="translate(682,106)"/>
<path d="M0 0 C2.16874252 0.50603992 3.99967627 0.99983813 6 2 C5.67 3.32 5.34 4.64 5 6 C2.525 5.01 2.525 5.01 0 4 C0 2.68 0 1.36 0 0 Z " fill="#233849" transform="translate(676,103)"/>
<path d="M0 0 C3.63 0.33 7.26 0.66 11 1 C6.78370866 3.10814567 4.60209225 3.17700355 0 3 C0 2.01 0 1.02 0 0 Z " fill="#3D464D" transform="translate(430,347)"/>
<path d="M0 0 C0.90492188 0.02320313 1.80984375 0.04640625 2.7421875 0.0703125 C4.10730469 0.09738281 4.10730469 0.09738281 5.5 0.125 C6.19867188 0.14820313 6.89734375 0.17140625 7.6171875 0.1953125 C6.6271875 1.6803125 6.6271875 1.6803125 5.6171875 3.1953125 C2.3171875 2.8653125 -0.9828125 2.5353125 -4.3828125 2.1953125 C-2.3828125 0.1953125 -2.3828125 0.1953125 0 0 Z " fill="#F2C82A" transform="translate(172.3828125,138.8046875)"/>
<path d="M0 0 C2.97 0.495 2.97 0.495 6 1 C3.82575883 3.50037734 2.26954202 4.43628586 -1 5 C-1.33 4.01 -1.66 3.02 -2 2 C-1.34 2 -0.68 2 0 2 C0 1.34 0 0.68 0 0 Z " fill="#4F5761" transform="translate(476,331)"/>
<path d="M0 0 C2.31 0.66 4.62 1.32 7 2 C7 3.32 7 4.64 7 6 C6.01 5.67 5.02 5.34 4 5 C2.66893378 4.65772583 1.33599921 4.32248257 0 4 C0 2.68 0 1.36 0 0 Z " fill="#081624" transform="translate(191,321)"/>
<path d="M0 0 C2.7972908 2.06756277 3.02692273 3.14440371 3.6875 6.6875 C3.790625 7.780625 3.89375 8.87375 4 10 C2 8.375 2 8.375 0 6 C-0.25 2.75 -0.25 2.75 0 0 Z " fill="#E1CE7C" transform="translate(108,238)"/>
<path d="M0 0 C3.85645121 -0.22036864 6.49223216 0.39644899 10 2 C10 2.99 10 3.98 10 5 C8.51800098 4.55090939 7.03944764 4.09043436 5.5625 3.625 C4.73878906 3.36976563 3.91507812 3.11453125 3.06640625 2.8515625 C1 2 1 2 0 0 Z " fill="#475B69" transform="translate(4,131)"/>
<path d="M0 0 C-0.33 0.99 -0.66 1.98 -1 3 C-1.804375 3.12375 -2.60875 3.2475 -3.4375 3.375 C-4.7059375 3.684375 -4.7059375 3.684375 -6 4 C-6.33 4.66 -6.66 5.32 -7 6 C-8.32 5.34 -9.64 4.68 -11 4 C-7.32740617 1.55160412 -4.45351799 0 0 0 Z " fill="#617582" transform="translate(77,82)"/>
<path d="M0 0 C2 2 2 2 2 3 C3.65 3.33 5.3 3.66 7 4 C7 4.33 7 4.66 7 5 C3.37 5 -0.26 5 -4 5 C-3.67 4.01 -3.34 3.02 -3 2 C-2.01 2.33 -1.02 2.66 0 3 C0 2.01 0 1.02 0 0 Z " fill="#26323C" transform="translate(402,352)"/>
<path d="M0 0 C1.32 0.66 2.64 1.32 4 2 C3.67 2.99 3.34 3.98 3 5 C-0.3 4.34 -3.6 3.68 -7 3 C-3 2 -3 2 -1 2 C-0.67 1.34 -0.34 0.68 0 0 Z " fill="#5E6E7A" transform="translate(60,147)"/>
<path d="M0 0 C7.75 0.75 7.75 0.75 10 3 C7.03 3 4.06 3 1 3 C0.67 2.01 0.34 1.02 0 0 Z " fill="#697B88" transform="translate(351,1)"/>
<path d="M0 0 C0.99 0 1.98 0 3 0 C3 0.66 3 1.32 3 2 C3.99 2.33 4.98 2.66 6 3 C3.69 3.66 1.38 4.32 -1 5 C-0.67 3.35 -0.34 1.7 0 0 Z " fill="#505663" transform="translate(458,338)"/>
<path d="M0 0 C-2.35277269 2.72426311 -4.62496331 3.8141763 -8 5 C-8 3.68 -8 2.36 -8 1 C-5.29120665 -0.35439668 -2.99066732 -0.06501451 0 0 Z " fill="#DDC133" transform="translate(90,153)"/>
<path d="M0 0 C0.66 0.33 1.32 0.66 2 1 C1.65120368 4.25543229 0.97866739 5.01873107 -1.5625 7.25 C-2.7690625 8.11625 -2.7690625 8.11625 -4 9 C-2.80100302 5.9168649 -1.52299523 2.93720508 0 0 Z " fill="#1E2D25" transform="translate(318,107)"/>
<path d="M0 0 C1.258125 0.12375 2.51625 0.2475 3.8125 0.375 C4.87404297 0.47941406 4.87404297 0.47941406 5.95703125 0.5859375 C8 1 8 1 11 3 C7.04 3 3.08 3 -1 3 C-0.67 2.01 -0.34 1.02 0 0 Z " fill="#5A6D7A" transform="translate(385,12)"/>
<path d="M0 0 C0.33 0 0.66 0 1 0 C1 1.98 1 3.96 1 6 C-1.97 5.505 -1.97 5.505 -5 5 C-4.67 4.01 -4.34 3.02 -4 2 C-3.01 2 -2.02 2 -1 2 C-0.67 1.34 -0.34 0.68 0 0 Z " fill="#081722" transform="translate(525,295)"/>
<path d="M0 0 C-1.26607607 0.53229326 -2.53810412 1.05044544 -3.8125 1.5625 C-4.52019531 1.85253906 -5.22789062 2.14257812 -5.95703125 2.44140625 C-8 3 -8 3 -11 2 C-11 1.34 -11 0.68 -11 0 C-6.97959015 -0.69584017 -3.91736581 -1.1700097 0 0 Z " fill="#79878F" transform="translate(619,155)"/>
<path d="M0 0 C-3.18762365 2.12508244 -5.26512223 2.5020163 -9 3 C-8.67 2.01 -8.34 1.02 -8 0 C-5.13822943 -1.43088528 -3.06624227 -0.59991697 0 0 Z " fill="#6B7681" transform="translate(434,350)"/>
<path d="M0 0 C1.32 0 2.64 0 4 0 C3.1875 1.9375 3.1875 1.9375 2 4 C1.01 4.33 0.02 4.66 -1 5 C-0.67 3.35 -0.34 1.7 0 0 Z " fill="#5E676E" transform="translate(520,305)"/>
<path d="M0 0 C-3.08559304 2.26881841 -4.42209376 3.05451946 -8.3125 2.6875 C-9.199375 2.460625 -10.08625 2.23375 -11 2 C-7.00042393 -0.06874624 -4.43559483 -1.37656391 0 0 Z " fill="#7A8797" transform="translate(142,63)"/>
<path d="M0 0 C2.91517292 1.07401108 4.77810176 1.77810176 7 4 C4.125 4.125 4.125 4.125 1 4 C0.34 3.34 -0.32 2.68 -1 2 C-0.67 1.34 -0.34 0.68 0 0 Z " fill="#0B1621" transform="translate(293,355)"/>
<path d="M0 0 C3.05338098 0.49514286 5.99662062 1.24915515 9 2 C6.03 2.66 3.06 3.32 0 4 C-0.33 3.01 -0.66 2.02 -1 1 C-0.67 0.67 -0.34 0.34 0 0 Z " fill="#5D6E7C" transform="translate(534,178)"/>
</svg>
